<svg xmlns="http://www.w3.org/2000/svg" width="50" height="83" fill="none"><mask id="a" width="18" height="18" x="32" y="32" maskUnits="userSpaceOnUse" style="mask-type:luminance"><path fill="#fff" d="M32.677 32.393h16.72v16.719h-16.72z"/></mask><g mask="url(#a)"><mask id="b" width="18" height="18" x="32" y="32" maskUnits="userSpaceOnUse" style="mask-type:luminance"><path fill="#fff" d="M41.038 32.393a8.36 8.36 0 1 0 0 16.721 8.36 8.36 0 0 0 0-16.721"/></mask><g mask="url(#b)"><path stroke="#482F87" stroke-width="4.07" d="M41.038 32.393a8.36 8.36 0 1 0 0 16.721 8.36 8.36 0 0 0 0-16.721Z"/></g></g><mask id="c" width="17" height="18" x="0" y="32" maskUnits="userSpaceOnUse" style="mask-type:luminance"><path fill="#fff" d="M0 32.393h16.719v16.719H0z"/></mask><g mask="url(#c)"><mask id="d" width="17" height="18" x="0" y="32" maskUnits="userSpaceOnUse" style="mask-type:luminance"><path fill="#fff" d="M8.36 32.393a8.36 8.36 0 1 0 0 16.721 8.36 8.36 0 0 0 0-16.721"/></mask><g mask="url(#d)"><path stroke="#482F87" stroke-width="4.07" d="M8.36 32.393a8.36 8.36 0 1 0 0 16.721 8.36 8.36 0 0 0 0-16.721Z"/></g></g><path stroke="#F47950" stroke-linecap="round" stroke-width="3.053" d="M24.698 2v16.136m12.285-6.561L33.43 17.73m-21.54-5.542 3.647 6.1"/><mask id="e" width="11" height="17" x="19" y="61" maskUnits="userSpaceOnUse" style="mask-type:luminance"><path fill="#fff" d="M19.957 61.397h9.509v16.306h-9.509z"/></mask><g mask="url(#e)"><mask id="f" width="11" height="17" x="19" y="61" maskUnits="userSpaceOnUse" style="mask-type:luminance"><path fill="#fff" d="M21.484 61.397h6.455a1.53 1.53 0 0 1 1.527 1.527v13.24a1.53 1.53 0 0 1-1.527 1.526h-6.455a1.526 1.526 0 0 1-1.526-1.526v-13.24a1.526 1.526 0 0 1 1.526-1.527"/></mask><g mask="url(#f)"><path fill="#482F87" d="M19.957 61.397h9.509v16.306h-9.509z"/></g></g><mask id="g" width="24" height="11" x="13" y="72" maskUnits="userSpaceOnUse" style="mask-type:luminance"><path fill="#fff" d="M13.306 72.853H36.15v9.604H13.306z"/></mask><g mask="url(#g)"><mask id="h" width="24" height="11" x="13" y="72" maskUnits="userSpaceOnUse" style="mask-type:luminance"><path fill="#fff" d="M15.34 72.853h18.74c1.125 0 2.034.912 2.034 2.035v5.534a2.034 2.034 0 0 1-2.035 2.035H15.341a2.036 2.036 0 0 1-2.035-2.035v-5.534c0-1.123.911-2.035 2.035-2.035Z"/></mask><g mask="url(#h)"><path fill="#482F87" d="M13.306 72.853h22.808v9.604H13.306z"/></g></g><mask id="i" width="24" height="11" x="13" y="72" maskUnits="userSpaceOnUse" style="mask-type:luminance"><path fill="#fff" d="M13.306 72.853h22.896v9.668H13.306z"/></mask><g mask="url(#i)"><mask id="j" width="24" height="11" x="13" y="72" maskUnits="userSpaceOnUse" style="mask-type:luminance"><path fill="#fff" d="M15.34 72.853h18.74c1.123 0 2.034.912 2.034 2.035v5.534a2.036 2.036 0 0 1-2.035 2.035H15.341a2.036 2.036 0 0 1-2.035-2.035v-5.534c0-1.123.911-2.035 2.035-2.035Z"/></mask><g mask="url(#j)"><path stroke="#fff" stroke-width="3.053" d="M15.34 72.853h18.74c1.123 0 2.034.912 2.034 2.035v5.534a2.036 2.036 0 0 1-2.035 2.035H15.341a2.036 2.036 0 0 1-2.035-2.035v-5.534c0-1.123.911-2.035 2.035-2.035Z"/></g></g><mask id="k" width="34" height="42" x="8" y="26" maskUnits="userSpaceOnUse" style="mask-type:luminance"><path fill="#fff" d="M8.36 26.812h32.646v40.299H8.361V26.812Z"/></mask><g mask="url(#k)"><mask id="l" width="34" height="42" x="8" y="26" maskUnits="userSpaceOnUse" style="mask-type:luminance"><path fill="#fff" d="M30.117 66.167c-1.667.57-3.575.944-5.443.944s-3.665-.32-5.321-.89c-.035-.017-.07-.017-.106-.035-6.22-2.277-10.799-8.29-10.886-15.315V30.493a3.56 3.56 0 0 1 3.561-3.562h25.522a3.56 3.56 0 0 1 3.562 3.562v20.36c-.087 7.08-4.598 13.09-10.889 15.314"/></mask><g mask="url(#l)"><path fill="#482F87" d="M41.006 67.111H8.361V26.94h32.645v40.17Z"/></g></g><mask id="m" width="17" height="17" x="16" y="35" maskUnits="userSpaceOnUse" style="mask-type:luminance"><path fill="#fff" d="M16.528 35.994h16.345v15.662H16.528z"/></mask><g mask="url(#m)"><mask id="n" width="17" height="16" x="16" y="36" maskUnits="userSpaceOnUse" style="mask-type:luminance"><path fill="#fff" d="m25.157 36.352 1.227 3.784a2.1 2.1 0 0 0 1.998 1.453h3.961a.496.496 0 0 1 .292.898l-3.206 2.335a2.1 2.1 0 0 0-.764 2.35l1.227 3.784a.497.497 0 0 1-.763.554l-3.21-2.337a2.1 2.1 0 0 0-2.466 0l-3.21 2.337a.497.497 0 0 1-.763-.554l1.227-3.784a2.1 2.1 0 0 0-.763-2.35l-3.21-2.335a.5.5 0 0 1-.18-.556.5.5 0 0 1 .475-.342h3.962a2.1 2.1 0 0 0 1.998-1.453l1.227-3.784a.496.496 0 0 1 .94 0Z"/></mask><g mask="url(#n)"><path fill="#D7C1DC" d="M15.502 34.9H33.9v17.508H15.502z"/></g></g><mask id="o" width="35" height="44" x="7" y="25" maskUnits="userSpaceOnUse" style="mask-type:luminance"><path fill="#fff" d="M7.751 25.898h34.09v42.228H7.75V25.898Z"/></mask><g mask="url(#o)"><mask id="p" width="35" height="44" x="7" y="25" maskUnits="userSpaceOnUse" style="mask-type:luminance"><path fill="#fff" d="M30.412 67.182c-1.75.57-3.753.944-5.714.944a18 18 0 0 1-5.584-.89c-.037-.017-.074-.017-.11-.035-6.528-2.277-11.335-8.287-11.428-15.357V29.478a3.56 3.56 0 0 1 3.562-3.562h27.141a3.56 3.56 0 0 1 3.562 3.562v22.345c-.093 7.126-4.826 13.136-11.43 15.36Z"/></mask><g mask="url(#p)"><path stroke="#fff" stroke-width="3.053" d="M30.412 67.182c-1.75.57-3.753.944-5.714.944a18 18 0 0 1-5.584-.89c-.037-.017-.074-.017-.11-.035-6.528-2.277-11.335-8.287-11.428-15.357V29.478a3.56 3.56 0 0 1 3.562-3.562h27.141a3.56 3.56 0 0 1 3.562 3.562v22.345c-.093 7.126-4.826 13.136-11.43 15.36Z"/></g></g></svg>
