<svg width="22" height="22" viewBox="0 0 22 22" fill="none" xmlns="http://www.w3.org/2000/svg">
<mask id="mask0_0_1" style="mask-type:luminance" maskUnits="userSpaceOnUse" x="7" y="7" width="9" height="8">
<path d="M7.00073 7.72607H15.947V14.5507H7.00073V7.72607Z" fill="white"/>
</mask>
<g mask="url(#mask0_0_1)">
<mask id="mask1_0_1" style="mask-type:luminance" maskUnits="userSpaceOnUse" x="7" y="7" width="9" height="8">
<path d="M12.4316 14.0355L15.793 9.13836C15.9763 8.86759 15.9967 8.5182 15.8454 8.22705C15.6911 7.9359 15.3914 7.75539 15.0654 7.75539H7.90026C7.57139 7.75539 7.27163 7.9359 7.11738 8.22705C6.96605 8.5182 6.98642 8.86759 7.17268 9.13836L10.5341 14.0355C10.7465 14.3471 11.1016 14.5363 11.4828 14.5363C11.8612 14.5363 12.2162 14.3471 12.4316 14.0355Z" fill="white"/>
</mask>
<g mask="url(#mask1_0_1)">
<path d="M6.22375 7.75519H16.7561V15.4183H6.22375V7.75519Z" fill="#F47950"/>
</g>
</g>
<mask id="mask2_0_1" style="mask-type:luminance" maskUnits="userSpaceOnUse" x="0" y="0" width="22" height="22">
<path d="M0.757935 0.138672H21.9915V21.3811H0.757935V0.138672Z" fill="white"/>
</mask>
<g mask="url(#mask2_0_1)">
<mask id="mask3_0_1" style="mask-type:luminance" maskUnits="userSpaceOnUse" x="0" y="0" width="23" height="22">
<path d="M11.4795 0.138672C5.55993 0.138672 0.757935 4.93976 0.757935 10.8647C0.757935 16.7896 5.55993 21.5907 11.4795 21.5907C17.4019 21.5907 22.2039 16.7896 22.2039 10.8647C22.2039 4.93976 17.4019 0.138672 11.4795 0.138672Z" fill="white"/>
</mask>
<g mask="url(#mask3_0_1)">
<path d="M11.4795 0.138672C5.55993 0.138672 0.757935 4.93976 0.757935 10.8647C0.757935 16.7896 5.55993 21.5907 11.4795 21.5907C17.4019 21.5907 22.201 16.7896 22.201 10.8647C22.201 4.93976 17.4019 0.138672 11.4795 0.138672Z" stroke="#F47950" stroke-width="6.70462"/>
</g>
</g>
</svg>
