<svg xmlns="http://www.w3.org/2000/svg" width="50" height="42" fill="none"><mask id="a" width="21" height="9" x="3" y="0" maskUnits="userSpaceOnUse" style="mask-type:luminance"><path fill="#fff" d="M3.61.863h20.077v7.92H3.61z"/></mask><g mask="url(#a)"><mask id="b" width="21" height="9" x="3" y="0" maskUnits="userSpaceOnUse" style="mask-type:luminance"><path fill="#fff" d="M5.138.863h16.994c.844 0 1.528.681 1.528 1.526v4.868c0 .843-.684 1.527-1.528 1.527H5.138a1.53 1.53 0 0 1-1.529-1.527V2.39c0-.845.685-1.526 1.529-1.526Z"/></mask><g mask="url(#b)"><path fill="#D7C1DC" d="M3.61.863h20.045v7.92H3.61z"/></g></g><mask id="c" width="27" height="6" x="19" y="3" maskUnits="userSpaceOnUse" style="mask-type:luminance"><path fill="#fff" d="M19.412 3.744h26.195v5.04H19.412z"/></mask><g mask="url(#c)"><mask id="d" width="27" height="6" x="19" y="3" maskUnits="userSpaceOnUse" style="mask-type:luminance"><path fill="#fff" d="M20.94 3.744h23.122c.844 0 1.529.683 1.529 1.526v1.987c0 .843-.685 1.527-1.529 1.527H20.941a1.53 1.53 0 0 1-1.529-1.527V5.27c0-.843.685-1.526 1.529-1.526Z"/></mask><g mask="url(#d)"><path fill="#D7C1DC" d="M19.412 3.744h26.176v5.04H19.412z"/></g></g><mask id="e" width="50" height="32" x="0" y="10" maskUnits="userSpaceOnUse" style="mask-type:luminance"><path fill="#fff" d="M.27 10.774h49.516V41.13H.271V10.774Z"/></mask><g mask="url(#e)"><mask id="f" width="50" height="32" x="0" y="10" maskUnits="userSpaceOnUse" style="mask-type:luminance"><path fill="#fff" d="M3.837 10.774h42.337a3.565 3.565 0 0 1 3.567 3.562v23.232a3.565 3.565 0 0 1-3.567 3.562H3.837a3.565 3.565 0 0 1-3.566-3.562V14.336a3.565 3.565 0 0 1 3.566-3.562"/></mask><g mask="url(#f)"><path fill="#482F87" d="M.27 10.774h49.516V41.13H.271V10.774Z"/></g></g></svg>
