<svg xmlns="http://www.w3.org/2000/svg" width="34" height="16" fill="none"><mask id="a" width="34" height="16" x="0" y="0" maskUnits="userSpaceOnUse" style="mask-type:luminance"><path fill="#fff" d="M.758.304h32.406v15.594H.758z"/></mask><g mask="url(#a)"><mask id="b" width="34" height="16" x="0" y="0" maskUnits="userSpaceOnUse" style="mask-type:luminance"><path fill="#fff" d="M8.467.304h17.037a7.71 7.71 0 0 1 7.71 7.713 7.71 7.71 0 0 1-7.71 7.712H8.467a7.71 7.71 0 0 1-7.71-7.712A7.71 7.71 0 0 1 8.468.304Z"/></mask><g mask="url(#b)"><path stroke="#F47950" stroke-width="6.705" d="M8.467.304h17.037a7.71 7.71 0 0 1 7.71 7.713 7.71 7.71 0 0 1-7.71 7.712H8.467a7.71 7.71 0 0 1-7.71-7.712A7.71 7.71 0 0 1 8.468.304Z"/></g></g><path stroke="#F47950" stroke-linecap="round" stroke-width="3.352" d="M22.425 8.075h-10.82m2.08-6.039H10.27m3.41 12.077H8.425m15.954-.055h-3.417m3.417-12.022h-3.417"/></svg>
