<svg xmlns="http://www.w3.org/2000/svg" width="50" height="62" fill="none"><mask id="a" width="45" height="62" x="5" y="0" maskUnits="userSpaceOnUse" style="mask-type:luminance"><path fill="#fff" d="M5.71 0h43.483v62H5.709z"/></mask><g mask="url(#a)"><mask id="b" width="45" height="62" x="5" y="0" maskUnits="userSpaceOnUse" style="mask-type:luminance"><path fill="#fff" d="M9.82 0h35.263a4.11 4.11 0 0 1 4.11 4.11v53.615a4.107 4.107 0 0 1-4.11 4.11H9.82a4.11 4.11 0 0 1-4.11-4.11V4.11A4.11 4.11 0 0 1 9.82 0"/></mask><g mask="url(#b)"><path fill="#482F87" d="M5.71 0h43.483v61.832H5.709z"/></g></g><mask id="c" width="22" height="11" x="19" y="8" maskUnits="userSpaceOnUse" style="mask-type:luminance"><path fill="#fff" d="M19.184 8.465h21.302v9.74H19.184z"/></mask><g mask="url(#c)"><mask id="d" width="22" height="11" x="19" y="8" maskUnits="userSpaceOnUse" style="mask-type:luminance"><path fill="#fff" d="M21.532 8.465h16.584a2.35 2.35 0 0 1 2.349 2.348v5.043a2.35 2.35 0 0 1-2.349 2.349H21.532a2.35 2.35 0 0 1-2.349-2.349v-5.042a2.35 2.35 0 0 1 2.35-2.35Z"/></mask><g mask="url(#d)"><path fill="#D7C1DC" d="M19.184 8.465H40.45v9.74H19.183v-9.74Z"/></g></g><mask id="e" width="22" height="11" x="19" y="8" maskUnits="userSpaceOnUse" style="mask-type:luminance"><path fill="#fff" d="M19.184 8.465h21.22v10.024h-21.22z"/></mask><g mask="url(#e)"><mask id="f" width="22" height="11" x="19" y="8" maskUnits="userSpaceOnUse" style="mask-type:luminance"><path fill="#fff" d="M21.532 8.465H38.11a2.35 2.35 0 0 1 2.349 2.348v5.04a2.35 2.35 0 0 1-2.349 2.349H21.532a2.35 2.35 0 0 1-2.349-2.349v-5.04a2.35 2.35 0 0 1 2.35-2.348Z"/></mask><g mask="url(#f)"><path stroke="#D7C1DC" stroke-width="3.523" d="M21.532 8.465H38.11a2.35 2.35 0 0 1 2.349 2.348v5.04a2.35 2.35 0 0 1-2.349 2.349H21.532a2.35 2.35 0 0 1-2.349-2.349v-5.04a2.35 2.35 0 0 1 2.35-2.348Z"/></g></g><mask id="g" width="5" height="60" x="8" y="1" maskUnits="userSpaceOnUse" style="mask-type:luminance"><path fill="#fff" d="M8.578 1.483h4.391v58.945H8.578z"/></mask><g mask="url(#g)"><path fill="#fff" d="M12.988 4.41c0 1.379-.966 2.492-2.184 2.492-1.214 0-2.18-1.113-2.18-2.492s.988-2.49 2.18-2.49c1.196 0 2.184 1.11 2.184 2.49m0 7.514c0 1.379-.966 2.489-2.184 2.489-1.214 0-2.18-1.11-2.18-2.49 0-1.379.966-2.489 2.18-2.489 1.217 0 2.184 1.11 2.184 2.49m0 7.513c0 1.376-.966 2.49-2.184 2.49-1.214 0-2.18-1.114-2.18-2.49 0-1.379.988-2.492 2.18-2.492 1.196 0 2.184 1.113 2.184 2.492m0 7.51c0 1.38-.966 2.493-2.184 2.493-1.214 0-2.18-1.113-2.18-2.492s.966-2.49 2.18-2.49c1.217 0 2.184 1.11 2.184 2.49Zm0 7.533c0 1.38-.966 2.492-2.184 2.492-1.214 0-2.18-1.113-2.18-2.492 0-1.376.988-2.51 2.18-2.51 1.196 0 2.184 1.113 2.184 2.51m0 7.514c0 1.379-.966 2.49-2.184 2.49-1.214 0-2.18-1.111-2.18-2.49s.966-2.49 2.18-2.49c1.217 0 2.184 1.11 2.184 2.49m0 7.514c0 1.379-.966 2.489-2.184 2.489-1.214 0-2.18-1.11-2.18-2.49 0-1.379.966-2.492 2.18-2.492 1.217 0 2.184 1.113 2.184 2.493m0 7.51c0 1.38-.966 2.493-2.184 2.493-1.214 0-2.18-1.114-2.18-2.493s.966-2.489 2.18-2.489c1.217 0 2.184 1.11 2.184 2.49Zm0 7.514c0 1.38-.966 2.49-2.184 2.49-1.214 0-2.18-1.11-2.18-2.49s.988-2.51 2.18-2.51c1.196 0 2.184 1.13 2.184 2.51m0 7.514c0 1.376-.966 2.49-2.184 2.49-1.214 0-2.18-1.114-2.18-2.49 0-1.38.966-2.493 2.18-2.493 1.217 0 2.184 1.114 2.184 2.493m0 7.51c0 1.38-.966 2.493-2.184 2.493-1.214 0-2.18-1.113-2.18-2.493s.966-2.489 2.18-2.489c1.217 0 2.184 1.11 2.184 2.49Zm0 7.514c0 1.38-.966 2.49-2.184 2.49-1.214 0-2.18-1.11-2.18-2.49 0-1.379.966-2.492 2.18-2.492 1.217 0 2.184 1.113 2.184 2.492m0 7.511c0 1.38-.966 2.492-2.184 2.492-1.214 0-2.18-1.113-2.18-2.492s.966-2.49 2.18-2.49c1.217 0 2.184 1.11 2.184 2.49m0 7.514c0 1.379-.966 2.489-2.184 2.489-1.214 0-2.18-1.11-2.18-2.489s.966-2.49 2.18-2.49c1.217 0 2.184 1.111 2.184 2.49"/></g><mask id="h" width="13" height="58" x="0" y="3" maskUnits="userSpaceOnUse" style="mask-type:luminance"><path fill="#fff" d="M0 3.049h12.492v57.379H0z"/></mask><g mask="url(#h)"><mask id="i" width="12" height="101" x="0" y="3" maskUnits="userSpaceOnUse" style="mask-type:luminance"><path fill="#fff" d="M10.578 5.768h-9.22a1.337 1.337 0 1 1-.001-2.674h9.202c.74 0 1.336.596 1.336 1.336.021.722-.596 1.337-1.318 1.337Zm0 7.513h-9.22c-.74 0-1.337-.596-1.337-1.336 0-.743.597-1.34 1.337-1.34h9.202c.74 0 1.336.597 1.336 1.34.021.719-.596 1.336-1.318 1.336m0 7.514h-9.22c-.74 0-1.337-.596-1.337-1.34 0-.74.597-1.336 1.337-1.336h9.202c.74 0 1.336.596 1.336 1.337.021.721-.596 1.339-1.318 1.339m0 7.51h-9.22a1.338 1.338 0 0 1 0-2.676h9.202c.74 0 1.336.6 1.336 1.34.021.719-.596 1.337-1.318 1.337Zm0 7.514h-9.22c-.74 0-1.337-.596-1.337-1.339 0-.74.597-1.336 1.337-1.336h9.202c.74 0 1.336.596 1.336 1.336.021.722-.596 1.34-1.318 1.34Zm0 7.514h-9.22a1.338 1.338 0 0 1 0-2.676h9.202c.74 0 1.336.597 1.336 1.337.021.721-.596 1.34-1.318 1.34Zm0 7.511h-9.22c-.74 0-1.337-.596-1.337-1.336 0-.744.597-1.34 1.337-1.34h9.202c.74 0 1.336.596 1.336 1.34.021.718-.596 1.336-1.318 1.336m0 7.514h-9.22c-.74 0-1.337-.597-1.337-1.34 0-.74.597-1.336 1.337-1.336h9.202c.74 0 1.336.596 1.336 1.336.021.743-.596 1.34-1.318 1.34m0 7.51h-9.22a1.338 1.338 0 0 1 0-2.676h9.202c.74 0 1.336.6 1.336 1.34.021.74-.596 1.336-1.318 1.336m0 7.514h-9.22c-.74 0-1.337-.596-1.337-1.336 0-.743.597-1.34 1.337-1.34h9.202c.74 0 1.336.597 1.336 1.34.021.74-.596 1.336-1.318 1.336m0 7.514h-9.22a1.338 1.338 0 0 1 0-2.676h9.202c.74 0 1.336.596 1.336 1.337.021.74-.596 1.339-1.318 1.339m0 7.51h-9.22c-.74 0-1.337-.596-1.337-1.336 0-.743.597-1.34 1.337-1.34h9.202c.74 0 1.336.597 1.336 1.34.021.74-.596 1.337-1.318 1.337Zm0 7.514h-9.22c-.74 0-1.337-.596-1.337-1.339 0-.74.597-1.336 1.337-1.336h9.202c.74 0 1.336.596 1.336 1.336.021.743-.596 1.34-1.318 1.34Zm0 7.511h-9.22a1.338 1.338 0 0 1 0-2.676h9.202c.74 0 1.336.6 1.336 1.34.021.74-.596 1.336-1.318 1.336"/></mask><g mask="url(#i)"><path fill="#F47950" d="M.021 3.095v57.333h11.896V3.095z"/></g></g><mask id="j" width="13" height="59" x="0" y="2" maskUnits="userSpaceOnUse" style="mask-type:luminance"><path fill="#fff" d="M0 2.266h12.97v58.162H0z"/></mask><g mask="url(#j)"><path stroke="#A7A9AC" stroke-miterlimit="10" stroke-width=".051" d="M10.578 5.768h-9.22a1.337 1.337 0 1 1-.001-2.674h9.202c.74 0 1.336.596 1.336 1.336.021.722-.596 1.337-1.318 1.337Zm0 7.513h-9.22c-.74 0-1.337-.596-1.337-1.336 0-.743.597-1.34 1.337-1.34h9.202c.74 0 1.336.597 1.336 1.34.021.719-.596 1.336-1.318 1.336Zm0 7.514h-9.22c-.74 0-1.337-.596-1.337-1.34 0-.74.597-1.336 1.337-1.336h9.202c.74 0 1.336.597 1.336 1.337.021.721-.596 1.34-1.318 1.34Zm0 7.51h-9.22a1.336 1.336 0 1 1 0-2.676h9.202c.74.001 1.336.6 1.336 1.34.021.72-.596 1.337-1.318 1.337Zm0 7.515h-9.22c-.74 0-1.337-.597-1.337-1.34 0-.74.597-1.336 1.337-1.336h9.202c.74 0 1.336.596 1.336 1.336.021.722-.596 1.34-1.318 1.34Zm0 7.513h-9.22a1.337 1.337 0 1 1 0-2.675h9.202c.74 0 1.336.596 1.336 1.336.021.722-.596 1.34-1.318 1.34Zm0 7.511h-9.22c-.74 0-1.337-.596-1.337-1.336 0-.743.597-1.34 1.337-1.34h9.202c.74 0 1.336.597 1.336 1.34.021.718-.596 1.336-1.318 1.336Zm0 7.514h-9.22c-.74 0-1.337-.596-1.337-1.34 0-.74.597-1.336 1.337-1.336h9.202c.74 0 1.336.596 1.336 1.336.021.743-.596 1.34-1.318 1.34Zm0 7.51h-9.22a1.338 1.338 0 0 1 0-2.676h9.202c.74 0 1.336.6 1.336 1.34.021.74-.596 1.337-1.318 1.337Zm0 7.514h-9.22c-.74 0-1.337-.596-1.337-1.336 0-.743.597-1.34 1.337-1.34h9.202c.74 0 1.336.597 1.336 1.34.021.74-.596 1.336-1.318 1.336Zm0 7.514h-9.22a1.338 1.338 0 0 1 0-2.676h9.202c.74 0 1.336.597 1.336 1.337.021.74-.596 1.34-1.318 1.34Zm0 7.51h-9.22c-.74 0-1.337-.596-1.337-1.336 0-.743.597-1.339 1.337-1.339h9.202c.74 0 1.336.596 1.336 1.34.021.74-.596 1.336-1.318 1.336Zm0 7.515h-9.22c-.74 0-1.337-.597-1.337-1.34 0-.74.597-1.336 1.337-1.336h9.202c.74 0 1.336.596 1.336 1.336.021.743-.596 1.34-1.318 1.34Zm0 7.51h-9.22a1.338 1.338 0 0 1 0-2.676h9.202c.74 0 1.336.6 1.336 1.34.021.74-.596 1.336-1.318 1.336Z"/></g></svg>
