<svg xmlns="http://www.w3.org/2000/svg" width="28" height="29" fill="none"><mask id="a" width="26" height="26" x="0" y="3" maskUnits="userSpaceOnUse" style="mask-type:luminance"><path fill="#fff" d="M.669 3.677h25.145v25.156H.669z"/></mask><g mask="url(#a)"><mask id="b" width="26" height="27" x="0" y="3" maskUnits="userSpaceOnUse" style="mask-type:luminance"><path fill="#fff" d="M13.328 3.677c-6.99 0-12.66 5.669-12.66 12.665 0 6.994 5.67 12.665 12.66 12.665 6.994 0 12.66-5.671 12.66-12.665 0-6.996-5.666-12.665-12.66-12.665"/></mask><g mask="url(#b)"><path stroke="#482F87" stroke-width="6.705" d="M13.328 3.677c-6.99 0-12.66 5.669-12.66 12.665 0 6.994 5.67 12.665 12.66 12.665 6.994 0 12.66-5.671 12.66-12.665 0-6.996-5.666-12.665-12.66-12.665Z"/></g></g><path stroke="#fff" stroke-linecap="round" stroke-width="6.146" d="m24.018 5.15-6.187 4.948"/><mask id="c" width="8" height="11" x="13" y="0" maskUnits="userSpaceOnUse" style="mask-type:luminance"><path fill="#fff" d="M13.168.483h7.38v9.772h-7.38V.482Z"/></mask><g mask="url(#c)"><mask id="d" width="8" height="11" x="13" y="0" maskUnits="userSpaceOnUse" style="mask-type:luminance"><path fill="#fff" d="M20.037 4.411 14.55.644a.88.88 0 0 0-.911-.056.88.88 0 0 0-.472.784v7.98a.883.883 0 0 0 1.383.728l5.486-3.77c.311-.216.5-.571.5-.95a1.16 1.16 0 0 0-.5-.949Z"/></mask><g mask="url(#d)"><path fill="#482F87" d="M13.168 11.029V-.323h8.251v11.352z"/></g></g><path fill="#482F87" d="M22.42 12.02a1.68 1.68 0 0 1-1.55-1.037 1.7 1.7 0 0 1-.126-.64 1.66 1.66 0 0 1 1.033-1.55 1.68 1.68 0 0 1 1.828.364 1.666 1.666 0 0 1 0 2.37 1.67 1.67 0 0 1-1.184.492Z"/></svg>
