<svg xmlns="http://www.w3.org/2000/svg" width="36" height="34" fill="none"><mask id="a" width="32" height="32" x="2" y="2" maskUnits="userSpaceOnUse" style="mask-type:luminance"><path fill="#fff" d="M2.122 2.14h31.096v31.304H2.122V2.139Z"/></mask><g mask="url(#a)"><mask id="b" width="33" height="33" x="1" y="1" maskUnits="userSpaceOnUse" style="mask-type:luminance"><path fill="#fff" d="M1.563 11.642v12.17c0 5.559 4.502 10.063 10.058 10.063h12.165c5.556 0 10.058-4.504 10.058-10.062v-12.17c0-5.559-4.502-10.063-10.058-10.063H11.621c-5.556 0-10.058 4.504-10.058 10.062"/></mask><g mask="url(#b)"><mask id="c" width="32" height="32" x="2" y="2" maskUnits="userSpaceOnUse" style="mask-type:luminance"><path fill="#fff" d="M12.29 2.25h10.827c5.556 0 10.058 4.507 10.058 10.062v10.83c0 5.559-4.502 10.063-10.058 10.063H12.291c-5.553 0-10.058-4.504-10.058-10.062v-10.83C2.233 6.756 6.738 2.25 12.29 2.25"/></mask><g mask="url(#c)"><path fill="#fff" d="M1.668 1.685h32.206v32.219H1.668z"/><path fill="#000" d="M1.566 1.583v32.423h32.41V1.583H1.565Zm32.206 32.219H1.77V1.787h32.002z"/></g></g></g><mask id="d" width="36" height="21" x="0" y="0" maskUnits="userSpaceOnUse" style="mask-type:luminance"><path fill="#fff" d="M0 .535h35.197v20.087H0z"/></mask><g mask="url(#d)"><path fill="#fff" d="M0 .535h35.215v20.087H0z"/></g><mask id="e" width="30" height="30" x="3" y="3" maskUnits="userSpaceOnUse" style="mask-type:luminance"><path fill="#fff" d="M3 3h29.324v29.013H3z"/></mask><g mask="url(#e)"><mask id="f" width="30" height="30" x="3" y="3" maskUnits="userSpaceOnUse" style="mask-type:luminance"><path fill="#fff" d="M6.911 3h21.414a3.91 3.91 0 0 1 3.912 3.913V28.1a3.91 3.91 0 0 1-3.911 3.913H6.91A3.91 3.91 0 0 1 3 28.1V6.913A3.915 3.915 0 0 1 6.911 3"/></mask><g mask="url(#f)"><path fill="#482F87" d="M3 3h29.228v29.013H3z"/></g></g><mask id="g" width="18" height="7" x="7" y="4" maskUnits="userSpaceOnUse" style="mask-type:luminance"><path fill="#fff" d="M7.616 4.226h17.089v6.315H7.615z"/></mask><g mask="url(#g)"><mask id="h" width="18" height="7" x="7" y="4" maskUnits="userSpaceOnUse" style="mask-type:luminance"><path fill="#fff" d="M8.733 4.226h14.849c.617 0 1.117.5 1.117 1.118v4.08c0 .616-.5 1.117-1.117 1.117H8.733c-.617 0-1.117-.5-1.117-1.118V5.344c0-.617.5-1.118 1.117-1.118"/></mask><g mask="url(#h)"><path fill="#fff" d="M7.616 4.226h17.089v6.315H7.615z"/></g></g><mask id="i" width="16" height="15" x="10" y="16" maskUnits="userSpaceOnUse" style="mask-type:luminance"><path fill="#fff" d="M10.055 16.256h15.18v14.508h-15.18z"/></mask><g mask="url(#i)"><mask id="j" width="16" height="15" x="10" y="16" maskUnits="userSpaceOnUse" style="mask-type:luminance"><path fill="#fff" d="M11.172 16.256h12.893c.62 0 1.117.501 1.117 1.118v12.272c0 .618-.497 1.118-1.117 1.118H11.172c-.62 0-1.117-.5-1.117-1.118V17.374c0-.617.497-1.118 1.117-1.118"/></mask><g mask="url(#j)"><path fill="#fff" d="M10.055 16.256h15.122v14.508H10.055z"/></g></g></svg>
